<?xml version="1.0" encoding="UTF-8" standalone="no"?>
<svg
   xmlns:dc="http://purl.org/dc/elements/1.1/"
   xmlns:cc="http://creativecommons.org/ns#"
   xmlns:rdf="http://www.w3.org/1999/02/22-rdf-syntax-ns#"
   xmlns:svg="http://www.w3.org/2000/svg"
   xmlns="http://www.w3.org/2000/svg"
   xmlns:sodipodi="http://sodipodi.sourceforge.net/DTD/sodipodi-0.dtd"
   xmlns:inkscape="http://www.inkscape.org/namespaces/inkscape"
   version="1.1"
   viewBox="-10 0 1000 1000"
   id="svg4"
   sodipodi:docname="openModule.svg"
   inkscape:version="0.92.3 (2405546, 2018-03-11)">
  <metadata
     id="metadata10">
    <rdf:RDF>
      <cc:Work
         rdf:about="">
        <dc:format>image/svg+xml</dc:format>
        <dc:type
           rdf:resource="http://purl.org/dc/dcmitype/StillImage" />
        <dc:title />
      </cc:Work>
    </rdf:RDF>
  </metadata>
  <defs
     id="defs8" />
  <sodipodi:namedview
     pagecolor="#ffffff"
     bordercolor="#666666"
     borderopacity="1"
     objecttolerance="10"
     gridtolerance="10"
     guidetolerance="10"
     inkscape:pageopacity="0"
     inkscape:pageshadow="2"
     inkscape:window-width="640"
     inkscape:window-height="480"
     id="namedview6"
     showgrid="false"
     inkscape:pagecheckerboard="true"
     inkscape:zoom="0.51400001"
     inkscape:cx="-5.8365369"
     inkscape:cy="326.40801"
     inkscape:current-layer="layer3"
     units="in" />
  <g
     inkscape:groupmode="layer"
     id="layer1"
     inkscape:label="BottomBox"
     style="display:none">
    <rect
       style="opacity:1;fill:none;fill-opacity:1;stroke:#fef9f9;stroke-width:10;stroke-miterlimit:0;stroke-dasharray:none;stroke-dashoffset:0;stroke-opacity:1"
       id="rect815"
       width="990"
       height="990"
       x="-5"
       y="5" />
  </g>
  <g
     inkscape:groupmode="layer"
     id="layer3"
     inkscape:label="5">
    <path
       style="fill:#c5c5c5;fill-opacity:1;stroke-width:1"
       d="m 399.21679,218.03995 c -62.20799,0.69355 -124.4929,0.0983 -186.73047,0.29688 -13.21549,0 -26.43099,0 -39.64648,0 -8.27915,8.90855 -17.86239,16.60538 -25.31055,26.27539 0,170.69987 0,341.39974 0,512.09961 8.93288,8.2415 16.60845,17.83405 26.27344,25.27734 170.34895,0 340.69791,0 511.04687,0 8.03891,-6.69784 17.25599,-12.24373 24.59181,-19.63086 41.00987,-108.86063 82.01881,-217.72162 123.0293,-326.58203 -8.26016,-10.74208 -16.52295,-21.48215 -24.78516,-32.22266 -16.85677,0 -33.71354,10e-6 -50.57031,0 0,-37.73177 0,-75.46354 0,-113.19531 -8.42601,-8.69385 -16.84974,-17.38992 -25.27149,-26.08789 -89.41992,0 -178.83984,0 -268.25976,0 -13.43627,-12.92783 -26.3989,-26.45576 -40.1543,-38.98242 -7.84783,-2.96691 -15.51384,-7.69164 -24.2129,-7.24805 z m -4.85352,54.23047 c 13.44595,13.17176 26.39221,26.97329 40.17775,39.72461 9.134,3.90211 18.68198,8.82112 28.94335,6.95117 79.89909,0 159.79818,0 239.69727,0 0,28.20313 0,56.40625 0,84.60938 -68.81353,0.19345 -137.71744,-0.40406 -206.47461,0.31054 -9.2578,3.60689 -19.551,6.80097 -25.46885,15.41817 -10.06768,10.06829 -20.13535,20.13659 -30.20302,30.20488 -58.42057,0 -116.84115,0 -175.26172,0 -8.0338,6.52365 -17.5088,11.65091 -24.69922,19.06836 -12.74609,39.47005 -25.49219,78.94011 -38.23828,118.41016 -0.45247,-104.89909 -0.90495,-209.79818 -1.35742,-314.69727 64.29492,0 128.58984,0 192.88475,0 z m 375.83594,185.21875 c -35.49609,89.94141 -70.99218,179.88281 -106.48828,269.82422 -150.60352,0 -301.20703,0 -451.81055,0 24.79558,-74.38411 49.59115,-148.76823 74.38672,-223.15234 55.84993,-0.19209 111.7907,0.40411 167.58399,-0.31055 9.2604,-3.62875 19.60357,-6.78603 25.42246,-15.51912 10.09095,-10.28074 20.1819,-20.56147 30.27285,-30.84221 86.8776,0 173.75521,0 260.63281,0 z"
       id="path2"
       inkscape:connector-curvature="0" />
  </g>
  <g
     inkscape:groupmode="layer"
     id="layer2"
     inkscape:label="TopBox" />
</svg>
